<?xml version="1.0" encoding="iso-8859-1"?>
<!-- Generator: Adobe Illustrator 19.0.0, SVG Export Plug-In . SVG Version: 6.00 Build 0)  -->
<svg version="1.1" id="Layer_1" xmlns="http://www.w3.org/2000/svg" xmlns:xlink="http://www.w3.org/1999/xlink" x="0px" y="0px"
	 viewBox="0 0 512 512" style="enable-background:new 0 0 512 512;" xml:space="preserve">
<path style="fill:#CFF09E;" d="M339.449,318.598c0-43.63,35.368-78.998,78.998-78.998c4.825,0,9.54,0.456,14.127,1.284l1.092-6.183
	H108.257l25.247,142.969H366.02C349.726,363.199,339.449,342.103,339.449,318.598z"/>
<g>
	<path style="fill:#507C5C;" d="M449.227,230.271l14.795-83.781c0.748-4.239-0.416-8.589-3.183-11.886
		c-2.764-3.297-6.849-5.201-11.151-5.201h-71.572c-8.038,0-14.556,6.517-14.556,14.556s6.518,14.556,14.556,14.556h54.219
		l-10.883,61.631H120.468l-10.883-61.631h192.013c8.038,0,14.556-6.517,14.556-14.556s-6.518-14.556-14.556-14.556H104.015
		L86.832,38.148c-1.295-6.879-7.304-11.862-14.304-11.862H14.556C6.517,26.287,0,32.803,0,40.843s6.517,14.556,14.556,14.556h45.901
		l58.714,324.803c1.229,6.955,7.272,12.025,14.335,12.025h60.489c17.748,0,32.188,14.44,32.188,32.188
		c0,17.748-14.44,32.188-32.188,32.188s-32.188-14.44-32.188-32.188c0-8.039-6.517-14.556-14.556-14.556
		c-8.039,0-14.556,6.517-14.556,14.556c0,33.8,27.499,61.3,61.299,61.3s61.3-27.499,61.3-61.3c0-11.801-3.36-22.827-9.16-32.188
		h102.244c17.748,0,32.188,14.44,32.188,32.188c0,17.748-14.44,32.188-32.188,32.188c-17.748,0-32.188-14.44-32.188-32.188
		c0-8.039-6.518-14.556-14.556-14.556s-14.556,6.517-14.556,14.556c0,33.8,27.499,61.3,61.3,61.3s61.299-27.499,61.299-61.3
		c0-4.397-0.474-8.684-1.359-12.821c3.329,0.36,6.706,0.557,10.13,0.557c51.585,0,93.553-41.968,93.553-93.553
		C512,277.795,485.732,243.031,449.227,230.271z M125.609,249.258h230.098c-0.02,0.019-0.039,0.038-0.06,0.057
		c-1.15,1.042-2.274,2.112-3.37,3.211c-0.207,0.207-0.4,0.425-0.604,0.633c-0.879,0.897-1.75,1.802-2.592,2.734
		c-0.364,0.402-0.707,0.82-1.064,1.229c-0.664,0.758-1.328,1.517-1.967,2.297c-0.389,0.475-0.758,0.965-1.138,1.447
		c-0.579,0.737-1.16,1.472-1.719,2.227c-0.386,0.521-0.753,1.055-1.128,1.585c-0.523,0.738-1.045,1.476-1.546,2.229
		c-0.371,0.559-0.728,1.127-1.087,1.694c-0.475,0.747-0.946,1.495-1.399,2.256c-0.351,0.588-0.687,1.183-1.025,1.78
		c-0.432,0.763-0.859,1.527-1.269,2.303c-0.325,0.611-0.638,1.229-0.948,1.847c-0.392,0.78-0.774,1.565-1.146,2.358
		c-0.295,0.633-0.584,1.269-0.865,1.91c-0.351,0.798-0.69,1.601-1.02,2.41c-0.265,0.652-0.525,1.306-0.776,1.965
		c-0.311,0.818-0.607,1.643-0.897,2.473c-0.231,0.665-0.463,1.332-0.68,2.004c-0.272,0.843-0.525,1.693-0.774,2.546
		c-0.197,0.674-0.394,1.346-0.576,2.028c-0.233,0.873-0.443,1.754-0.651,2.638c-0.16,0.675-0.325,1.348-0.47,2.029
		c-0.194,0.91-0.358,1.828-0.524,2.747c-0.121,0.668-0.252,1.332-0.36,2.006c-0.153,0.967-0.274,1.943-0.396,2.92
		c-0.08,0.638-0.176,1.269-0.243,1.91c-0.114,1.083-0.189,2.176-0.266,3.269c-0.038,0.546-0.096,1.086-0.125,1.633
		c-0.086,1.645-0.134,3.3-0.134,4.966c0,1.413,0.044,2.822,0.108,4.229c0.015,0.338,0.029,0.677,0.048,1.015
		c0.073,1.287,0.169,2.571,0.294,3.849c0.045,0.46,0.1,0.917,0.151,1.376c0.099,0.875,0.21,1.747,0.333,2.617
		c0.112,0.801,0.237,1.598,0.37,2.393c0.13,0.77,0.263,1.537,0.412,2.303c0.141,0.731,0.293,1.458,0.45,2.183
		c0.095,0.429,0.197,0.854,0.297,1.282c0.316,1.355,0.661,2.699,1.035,4.031c0.089,0.317,0.178,0.635,0.271,0.952
		c0.734,2.508,1.569,4.971,2.502,7.387c0.141,0.365,0.287,0.729,0.431,1.092c0.447,1.115,0.916,2.22,1.403,3.314
		c0.246,0.552,0.491,1.102,0.747,1.649c0.274,0.581,0.552,1.156,0.836,1.731c0.403,0.815,0.82,1.624,1.245,2.428
		c0.121,0.227,0.23,0.463,0.354,0.689H145.71L125.609,249.258z M418.447,383.039c-16.63,0-31.808-6.333-43.25-16.712
		c-0.1-0.092-0.198-0.188-0.298-0.279c-2.715-2.493-5.208-5.22-7.463-8.141c-0.239-0.31-0.485-0.614-0.718-0.927
		c-0.322-0.432-0.627-0.878-0.937-1.317c-0.336-0.477-0.674-0.952-0.997-1.438c-0.233-0.349-0.456-0.707-0.681-1.063
		c-0.384-0.604-0.764-1.21-1.128-1.824c-0.163-0.275-0.319-0.553-0.479-0.831c-0.41-0.719-0.811-1.444-1.194-2.178
		c-0.106-0.202-0.208-0.406-0.312-0.608c-0.421-0.83-0.825-1.665-1.21-2.511c-0.06-0.13-0.118-0.261-0.176-0.39
		c-0.415-0.932-0.811-1.87-1.182-2.821c-0.025-0.064-0.051-0.128-0.076-0.194c-0.394-1.019-0.764-2.048-1.106-3.087
		c-0.003-0.01-0.007-0.019-0.01-0.029c-1.057-3.21-1.862-6.508-2.403-9.863v-0.001c-0.172-1.067-0.314-2.141-0.432-3.218
		c-0.007-0.061-0.017-0.121-0.023-0.183c-0.108-1.004-0.183-2.013-0.243-3.023c-0.007-0.132-0.023-0.262-0.031-0.394
		c-0.06-1.131-0.092-2.268-0.092-3.406c0-35.534,28.908-64.442,64.442-64.442c1.007,0,2.007,0.031,3.003,0.076
		c0.691,0.033,1.384,0.087,2.079,0.143c0.263,0.02,0.527,0.036,0.789,0.06c0.869,0.082,1.739,0.18,2.611,0.297
		c0.074,0.01,0.147,0.019,0.221,0.028c0.905,0.124,1.811,0.268,2.716,0.429c30.1,5.409,53.02,31.773,53.02,63.409
		C482.888,354.132,453.98,383.039,418.447,383.039z"/>
	<path style="fill:#507C5C;" d="M442.348,304.042h-9.345v-9.345c0-8.039-6.518-14.556-14.556-14.556
		c-8.038,0-14.556,6.517-14.556,14.556v9.345h-9.345c-8.038,0-14.556,6.517-14.556,14.556s6.518,14.556,14.556,14.556h9.345v9.345
		c0,8.039,6.518,14.556,14.556,14.556c8.038,0,14.556-6.517,14.556-14.556v-9.345h9.345c8.038,0,14.556-6.517,14.556-14.556
		S450.386,304.042,442.348,304.042z"/>
</g>
<g>
</g>
<g>
</g>
<g>
</g>
<g>
</g>
<g>
</g>
<g>
</g>
<g>
</g>
<g>
</g>
<g>
</g>
<g>
</g>
<g>
</g>
<g>
</g>
<g>
</g>
<g>
</g>
<g>
</g>
</svg>
