<?xml version="1.0" encoding="iso-8859-1"?>
<!-- Generator: Adobe Illustrator 19.0.0, SVG Export Plug-In . SVG Version: 6.00 Build 0)  -->
<svg version="1.1" id="Layer_1" xmlns="http://www.w3.org/2000/svg" xmlns:xlink="http://www.w3.org/1999/xlink" x="0px" y="0px"
	 viewBox="0 0 512 512" style="enable-background:new 0 0 512 512;" xml:space="preserve">
<path style="fill:#507C5C;" d="M450.134,496.652H61.866C27.752,496.652,0,468.898,0,434.786V170.565
	c0-34.112,27.752-61.866,61.866-61.866h388.268c34.114,0,61.866,27.754,61.866,61.866v264.221
	C512,468.898,484.248,496.652,450.134,496.652z M61.866,137.385c-18.296,0-33.18,14.884-33.18,33.18v264.221
	c0,18.296,14.884,33.18,33.18,33.18h388.268c18.295,0,33.18-14.884,33.18-33.18V170.565c0-18.296-14.884-33.18-33.18-33.18
	L61.866,137.385L61.866,137.385z"/>
<path style="fill:#CFF09E;" d="M328.222,80.267h-20.577c-0.585-28.031-23.475-50.578-51.647-50.578s-51.061,22.547-51.645,50.578
	h-20.577c-23.624,0-42.775,19.151-42.775,42.775l0,0c0,23.624,19.151,42.775,42.775,42.775h144.445
	c23.624,0,42.775-19.151,42.775-42.775l0,0C370.998,99.418,351.847,80.267,328.222,80.267z"/>
<g>
	<path style="fill:#507C5C;" d="M328.221,180.161H183.778c-31.494,0-57.118-25.622-57.118-57.118s25.624-57.118,57.118-57.118h8.067
		c7.034-28.901,33.338-50.578,64.155-50.578s57.121,21.675,64.155,50.578h8.067c31.495,0,57.118,25.622,57.118,57.118
		S359.717,180.161,328.221,180.161z M183.778,94.61c-15.678,0-28.432,12.755-28.432,28.432s12.755,28.432,28.432,28.432h144.443
		c15.678,0,28.432-12.755,28.432-28.432S343.898,94.61,328.221,94.61h-20.577c-7.804,0-14.177-6.241-14.34-14.043
		c-0.419-20.145-17.154-36.535-37.305-36.535s-36.885,16.39-37.305,36.535c-0.164,7.803-6.536,14.043-14.34,14.043
		C204.354,94.61,183.778,94.61,183.778,94.61z"/>
	<path style="fill:#507C5C;" d="M178.755,387.447c-42.752,0-77.533-34.782-77.533-77.534s34.782-77.533,77.533-77.533
		c6.816,0,13.584,0.888,20.119,2.639c7.651,2.051,12.192,9.915,10.142,17.566c-2.05,7.652-9.917,12.193-17.567,10.142
		c-4.114-1.103-8.385-1.661-12.694-1.661c-26.935,0-48.847,21.912-48.847,48.847s21.912,48.848,48.847,48.848
		s48.847-21.912,48.847-48.848c0-7.92,6.421-14.343,14.343-14.343s14.343,6.423,14.343,14.343
		C256.288,352.665,221.507,387.447,178.755,387.447z"/>
</g>
<path style="fill:#CFF09E;" d="M225.621,390.596c-13.665-8.419-29.725-13.286-46.866-13.286l0,0
	c-49.4,0-89.819,40.419-89.819,89.819v13.395h179.638v-13.395C268.574,434.871,251.338,406.441,225.621,390.596"/>
<g>
	<path style="fill:#507C5C;" d="M268.574,494.866H88.936c-7.922,0-14.343-6.423-14.343-14.343v-13.395
		c0-57.434,46.727-104.161,104.162-104.161c19.213,0,38.019,5.331,54.389,15.417c31.166,19.201,49.772,52.377,49.772,88.743v13.395
		C282.917,488.445,276.494,494.866,268.574,494.866z M103.284,466.18h150.941c-0.321-25.964-13.775-49.6-36.127-63.373
		c-11.843-7.296-25.447-11.153-39.342-11.153C137.454,391.655,103.795,425.001,103.284,466.18z"/>
	<path style="fill:#507C5C;" d="M423.064,326.328h-96.099c-7.922,0-14.343-6.423-14.343-14.343c0-7.92,6.421-14.343,14.343-14.343
		h96.099c7.922,0,14.343,6.423,14.343,14.343C437.407,319.905,430.986,326.328,423.064,326.328z"/>
	<path style="fill:#507C5C;" d="M423.064,429.605h-96.099c-7.922,0-14.343-6.423-14.343-14.343s6.421-14.343,14.343-14.343h96.099
		c7.922,0,14.343,6.423,14.343,14.343S430.986,429.605,423.064,429.605z"/>
</g>
<g>
</g>
<g>
</g>
<g>
</g>
<g>
</g>
<g>
</g>
<g>
</g>
<g>
</g>
<g>
</g>
<g>
</g>
<g>
</g>
<g>
</g>
<g>
</g>
<g>
</g>
<g>
</g>
<g>
</g>
</svg>
