<?xml version="1.0" encoding="iso-8859-1"?>
<!-- Generator: Adobe Illustrator 19.0.0, SVG Export Plug-In . SVG Version: 6.00 Build 0)  -->
<svg version="1.1" id="Layer_1" xmlns="http://www.w3.org/2000/svg" xmlns:xlink="http://www.w3.org/1999/xlink" x="0px" y="0px"
	 viewBox="0 0 512.002 512.002" style="enable-background:new 0 0 512.002 512.002;" xml:space="preserve">
<g>
	<path style="fill:#507C5C;" d="M353.783,122.398h-27.784V69.362c0-15.447-12.567-28.014-28.014-28.014h-83.969
		c-15.447,0-28.014,12.567-28.014,28.014V122.4h-27.784V69.362c0-30.767,25.031-55.798,55.798-55.798h83.969
		c30.767,0,55.798,25.031,55.798,55.798V122.398L353.783,122.398z"/>
	<path style="fill:#507C5C;" d="M407.996,498.438H104.004c-39.398,0-71.453-32.054-71.453-71.453V126.469
		c0-7.671,6.221-13.892,13.892-13.892h419.112c7.671,0,13.892,6.221,13.892,13.892v300.516
		C479.448,466.384,447.394,498.438,407.996,498.438z M60.337,140.361v286.623c0,24.079,19.589,43.669,43.669,43.669h303.99
		c24.079,0,43.669-19.589,43.669-43.669V140.361H60.337z"/>
</g>
<path style="fill:#CFF09E;" d="M455.365,288.204H56.635c-23.606,0-42.742-19.137-42.742-42.742V147.51
	c0-23.606,19.137-42.744,42.744-42.744h398.731c23.606,0,42.744,19.137,42.744,42.744v97.951
	C498.108,269.067,478.971,288.204,455.365,288.204z"/>
<path style="fill:#507C5C;" d="M455.364,302.096H56.636C25.406,302.096,0,276.69,0,245.46v-97.951
	c0-31.228,25.406-56.636,56.636-56.636h398.73c31.228,0,56.636,25.406,56.636,56.636v97.951
	C512,276.69,486.594,302.096,455.364,302.096z M56.636,118.659c-15.909,0-28.851,12.942-28.851,28.851v97.951
	c0,15.908,12.942,28.851,28.851,28.851h398.73c15.908,0,28.851-12.942,28.851-28.851V147.51c0-15.908-12.942-28.851-28.851-28.851
	H56.636L56.636,118.659z"/>
<path style="fill:#CFF09E;" d="M151.884,349.241L151.884,349.241c-20.975,0-37.979-17.003-37.979-37.977v-35.265
	c0-20.975,17.003-37.977,37.977-37.977l0,0c20.975,0,37.977,17.003,37.977,37.977v35.265
	C189.863,332.236,172.858,349.241,151.884,349.241z"/>
<path style="fill:#507C5C;" d="M151.884,363.133c-28.601,0-51.869-23.27-51.869-51.871v-35.265
	c0-28.601,23.268-51.869,51.869-51.869s51.871,23.268,51.871,51.869v35.265C203.755,339.863,180.485,363.133,151.884,363.133z
	 M151.884,251.912c-13.281,0-24.085,10.804-24.085,24.085v35.265c0,13.282,10.804,24.086,24.085,24.086
	c13.282,0,24.086-10.804,24.086-24.086v-35.265C175.97,262.716,165.166,251.912,151.884,251.912z"/>
<path style="fill:#CFF09E;" d="M360.116,349.241L360.116,349.241c-20.974,0-37.979-17.003-37.979-37.977v-35.265
	c0-20.975,17.003-37.977,37.977-37.977l0,0c20.975,0,37.977,17.003,37.977,37.977v35.265
	C398.093,332.236,381.091,349.241,360.116,349.241z"/>
<g>
	<path style="fill:#507C5C;" d="M360.116,363.133c-28.601,0-51.871-23.27-51.871-51.871v-35.265
		c0-28.601,23.27-51.869,51.871-51.869s51.869,23.268,51.869,51.869v35.265C411.986,339.863,388.717,363.133,360.116,363.133z
		 M360.116,251.912c-13.282,0-24.086,10.804-24.086,24.085v35.265c0,13.282,10.804,24.086,24.086,24.086
		c13.281,0,24.085-10.804,24.085-24.086v-35.265C384.201,262.716,373.396,251.912,360.116,251.912z"/>
	<path style="fill:#507C5C;" d="M389.939,95.6h-44.758c-7.671,0-13.892-6.221-13.892-13.892s6.221-13.892,13.892-13.892h44.758
		c7.671,0,13.892,6.221,13.892,13.892S397.61,95.6,389.939,95.6z"/>
	<path style="fill:#507C5C;" d="M166.819,95.6h-44.758c-7.671,0-13.892-6.221-13.892-13.892s6.221-13.892,13.892-13.892h44.758
		c7.671,0,13.892,6.221,13.892,13.892S174.492,95.6,166.819,95.6z"/>
</g>
<g>
</g>
<g>
</g>
<g>
</g>
<g>
</g>
<g>
</g>
<g>
</g>
<g>
</g>
<g>
</g>
<g>
</g>
<g>
</g>
<g>
</g>
<g>
</g>
<g>
</g>
<g>
</g>
<g>
</g>
</svg>
