<?xml version="1.0"?>
<svg xmlns="http://www.w3.org/2000/svg" height="512px" viewBox="-16 0 480 480" width="512px"><g><path d="m264 8h-224c-17.671875 0-32 14.328125-32 32v400c0 17.671875 14.328125 32 32 32h224c17.671875 0 32-14.328125 32-32v-400c0-17.671875-14.328125-32-32-32zm0 0" fill="#5aaae7" data-original="#5AAAE7"/><path d="m56 472h-16c-17.671875 0-32-14.328125-32-32v-400c0-17.671875 14.328125-32 32-32h16c-17.671875 0-32 14.328125-32 32v400c0 17.671875 14.328125 32 32 32zm0 0" fill="#3d9ae2" data-original="#3D9AE2"/><path d="m296 418.640625v10.71875c-5.234375 2.046875-10.574219 3.808594-16 5.28125-13.03125 3.574219-26.488281 5.378906-40 5.359375-63.546875.035156-120.402344-39.488281-142.511719-99.070312-22.109375-59.578126-4.796875-126.621094 43.390625-168.050782-43.609375 50.617188-49.039062 123.78125-13.375 180.28125 35.660156 56.496094 104.042969 83.070313 168.496094 65.480469zm0 0" fill="#3d9ae2" data-original="#3D9AE2"/><path d="m216 8v24c-.027344 8.824219-7.175781 15.972656-16 16h-96c-8.824219-.027344-15.972656-7.175781-16-16v-24zm0 0" fill="#ff9811" data-original="#FF9811"/><path d="m408 272c0 68.542969-45.875 128.601562-112 146.640625-13.03125 3.574219-26.488281 5.378906-40 5.359375-83.949219 0-152-68.050781-152-152s68.050781-152 152-152c13.511719-.019531 26.96875 1.785156 40 5.359375 66.125 18.039063 112 78.097656 112 146.640625zm0 0" fill="#ffd422" data-original="#FFD422"/><g fill="#00b39d"><path d="m280 336h16c0 4.417969-3.582031 8-8 8s-8-3.582031-8-8zm0 0" data-original="#00B39D"/><path d="m296 336h-16c0-4.417969 3.582031-8 8-8s8 3.582031 8 8zm0 0" data-original="#00B39D"/><path d="m232 336h16c0 4.417969-3.582031 8-8 8s-8-3.582031-8-8zm0 0" data-original="#00B39D"/><path d="m248 336h-16c0-4.417969 3.582031-8 8-8s8 3.582031 8 8zm0 0" data-original="#00B39D"/><path d="m320 232-8 64h-102.960938l-11.359374-64zm0 0" data-original="#00B39D"/></g><path d="m96 72h16v16h-16zm0 0" data-original="#000000" class="active-path" style="fill:#507642" data-old_color="#000000"/><path d="m128 72h16v16h-16zm0 0" data-original="#000000" class="active-path" style="fill:#507642" data-old_color="#000000"/><path d="m160 72h16v16h-16zm0 0" data-original="#000000" class="active-path" style="fill:#507642" data-old_color="#000000"/><path d="m192 72h16v16h-16zm0 0" data-original="#000000" class="active-path" style="fill:#507642" data-old_color="#000000"/><path d="m416 272c-.097656-69.8125-45.414062-131.511719-112-152.488281v-79.511719c-.027344-22.082031-17.917969-39.9726562-40-40h-224c-22.082031.0273438-39.9726562 17.917969-40 40v400c.0273438 22.082031 17.917969 39.972656 40 40h224c22.082031-.027344 39.972656-17.917969 40-40v-15.511719c66.582031-20.980469 111.898438-82.679687 112-152.488281zm-16 0c0 61.75-39.367188 116.625-97.863281 136.410156-58.492188 19.785156-123.089844.070313-160.570313-49-37.484375-49.070312-39.507812-116.578125-5.035156-167.804687 34.476562-51.230469 97.773438-74.777344 157.347656-58.535157 62.621094 17.132813 106.066406 74.007813 106.121094 138.929688zm-304-256h112v16c0 4.417969-3.582031 8-8 8h-96c-4.417969 0-8-3.582031-8-8zm168 448h-224c-13.253906 0-24-10.746094-24-24v-400c0-13.253906 10.746094-24 24-24h40v16c0 13.253906 10.746094 24 24 24h96c13.253906 0 24-10.746094 24-24v-16h40c13.253906 0 24 10.746094 24 24v75.199219c-63.570312-12.90625-128.644531 13.84375-164.757812 67.734375-36.109376 53.886718-36.109376 124.246094 0 178.132812 36.113281 53.890625 101.1875 80.640625 164.757812 67.734375v11.199219c0 13.253906-10.746094 24-24 24zm0 0" data-original="#000000" class="active-path" style="fill:#507642" data-old_color="#000000"/><path d="m126.460938 130.0625 12.257812-10.285156 10.285156 12.257812-12.257812 10.285156zm0 0" data-original="#000000" class="active-path" style="fill:#507642" data-old_color="#000000"/><path d="m103.773438 154.710938 10.285156-12.257813 12.257812 10.28125-10.28125 12.261719zm0 0" data-original="#000000" class="active-path" style="fill:#507642" data-old_color="#000000"/><path d="m85.722656 182.929688 8-13.855469 13.855469 8-8 13.859375zm0 0" data-original="#000000" class="active-path" style="fill:#507642" data-old_color="#000000"/><path d="m72.84375 213.847656 5.46875-15.027344 15.035156 5.472657-5.46875 15.027343zm0 0" data-original="#000000" class="active-path" style="fill:#507642" data-old_color="#000000"/><path d="m65.53125 246.535156 2.777344-15.757812 15.753906 2.777344-2.777344 15.757812zm0 0" data-original="#000000" class="active-path" style="fill:#507642" data-old_color="#000000"/><path d="m64 264h16v16h-16zm0 0" data-original="#000000" class="active-path" style="fill:#507642" data-old_color="#000000"/><path d="m65.535156 297.457031 15.753906-2.777343 2.777344 15.757812-15.753906 2.777344zm0 0" data-original="#000000" class="active-path" style="fill:#507642" data-old_color="#000000"/><path d="m72.839844 330.152344 15.035156-5.472656 5.472656 15.027343-15.035156 5.472657zm0 0" data-original="#000000" class="active-path" style="fill:#507642" data-old_color="#000000"/><path d="m85.71875 361.074219 13.855469-8 8 13.855469-13.855469 8zm0 0" data-original="#000000" class="active-path" style="fill:#507642" data-old_color="#000000"/><path d="m103.773438 389.285156 12.261718-10.28125 10.28125 12.257813-12.257812 10.28125zm0 0" data-original="#000000" class="active-path" style="fill:#507642" data-old_color="#000000"/><path d="m126.457031 413.9375 10.28125-12.261719 12.261719 10.28125-10.285156 12.261719zm0 0" data-original="#000000" class="active-path" style="fill:#507642" data-old_color="#000000"/><path d="m153.078125 434.285156 8-13.859375 13.855469 8-8 13.859375zm0 0" data-original="#000000" class="active-path" style="fill:#507642" data-old_color="#000000"/><path d="m385.683594 152.738281 12.257812-10.28125 10.28125 12.257813-12.257812 10.285156zm0 0" data-original="#000000" class="active-path" style="fill:#507642" data-old_color="#000000"/><path d="m404.425781 177.070312 13.855469-8 8 13.855469-13.855469 8.003907zm0 0" data-original="#000000" class="active-path" style="fill:#507642" data-old_color="#000000"/><path d="m418.648438 204.289062 15.035156-5.472656 5.472656 15.023438-15.035156 5.476562zm0 0" data-original="#000000" class="active-path" style="fill:#507642" data-old_color="#000000"/><path d="m427.933594 233.554688 15.753906-2.777344 2.777344 15.757812-15.753906 2.777344zm0 0" data-original="#000000" class="active-path" style="fill:#507642" data-old_color="#000000"/><path d="m432 264h16v16h-16zm0 0" data-original="#000000" class="active-path" style="fill:#507642" data-old_color="#000000"/><path d="m427.9375 310.449219 2.777344-15.757813 15.757812 2.777344-2.777344 15.757812zm0 0" data-original="#000000" class="active-path" style="fill:#507642" data-old_color="#000000"/><path d="m418.660156 339.714844 5.46875-15.027344 15.035156 5.472656-5.46875 15.027344zm0 0" data-original="#000000" class="active-path" style="fill:#507642" data-old_color="#000000"/><path d="m404.421875 366.929688 8-13.855469 13.855469 8-8 13.855469zm0 0" data-original="#000000" class="active-path" style="fill:#507642" data-old_color="#000000"/><path d="m385.757812 391.375 10.285157-12.253906 12.257812 10.285156-10.289062 12.257812zm0 0" data-original="#000000" class="active-path" style="fill:#507642" data-old_color="#000000"/><path d="m376 64h16v-16h16v-16h-16v-16h-16v16h-16v16h16zm0 0" data-original="#000000" class="active-path" style="fill:#507642" data-old_color="#000000"/><path d="m320 80h48v16h-48zm0 0" data-original="#000000" class="active-path" style="fill:#507642" data-old_color="#000000"/><path d="m360 112h48v16h-48zm0 0" data-original="#000000" class="active-path" style="fill:#507642" data-old_color="#000000"/><path d="m368 416h-16v16h-16v16h16v16h16v-16h16v-16h-16zm0 0" data-original="#000000" class="active-path" style="fill:#507642" data-old_color="#000000"/><path d="m199.871094 198.601562c-.675782-3.816406-3.996094-6.597656-7.871094-6.601562h-24v16h17.296875l20.574219 115.953125c1.691406 10.28125 9.867187 18.273437 20.183594 19.734375 2.742187 5.066406 8.011718 8.246094 13.769531 8.3125 5.757812.0625 11.097656-2.996094 13.953125-8h20.445312c2.824219 4.945312 8.082032 7.996094 13.777344 7.996094s10.953125-3.050782 13.777344-7.996094h18.222656v-16h-18.222656c-2.824219-4.945312-8.082032-7.996094-13.777344-7.996094s-10.953125 3.050782-13.777344 7.996094h-20.445312c-2.769532-4.828125-7.863282-7.855469-13.425782-7.984375-5.5625-.125-10.789062 2.664063-13.777343 7.359375-2.585938-1.054688-4.445313-3.371094-4.917969-6.128906l-3.070312-17.246094h93.414062c4.035156 0 7.4375-3.003906 7.9375-7.007812l8-64c.28125-2.277344-.421875-4.566407-1.941406-6.285157-1.519532-1.722656-3.703125-2.707031-5.996094-2.707031h-115.617188zm111.066406 41.398438-6 48h-89.195312l-8.542969-48zm0 0" data-original="#000000" class="active-path" style="fill:#507642" data-old_color="#000000"/></g> </svg>
