<svg id="Capa_1" enable-background="new 0 0 512.01 512.01" height="150" viewBox="0 0 512.01 512.01" width="150" xmlns="http://www.w3.org/2000/svg"><g><g><g><g><path d="m123.482 393.627c-5.391-1.903-10.156-5.665-13.238-11.005l-99.4-172.166c-6.862-11.886-2.79-27.084 9.096-33.946l286.942-165.666c11.885-6.862 27.083-2.79 33.946 9.096l99.4 172.166c6.862 11.885 2.79 27.083-9.096 33.946l-51.89 29.958z" fill="#ffc200"/></g><g><path d="m440.228 192.106-99.4-172.166c-6.685-11.58-21.282-15.738-33.02-9.599 4.049 2.109 7.568 5.352 10.02 9.599l99.4 172.166c6.862 11.885 2.79 27.083-9.096 33.946l-51.89 29.959-242.988 130.744c2.832 3.172 6.363 5.508 10.228 6.872l255.76-137.617 51.89-29.959c11.886-6.862 15.958-22.06 9.096-33.945z" fill="#fe9900"/></g><g><path d="m6.028 134.499h381.033v33.133h-381.033z" fill="#004a84" transform="matrix(.866 -.5 .5 .866 -49.201 118.511)"/></g></g><g><path d="m504.509 479.66c0 13.724-11.126 24.85-24.85 24.85h-331.332c-13.724 0-24.85-11.126-24.85-24.85v-198.8c0-13.724 11.126-24.85 24.85-24.85h331.333c13.724 0 24.85 11.126 24.85 24.85v198.8z" fill="#0068ae"/></g><g><path d="m479.66 256.01h-23c13.724 0 24.85 11.126 24.85 24.85v198.8c0 13.724-11.126 24.85-24.85 24.85h23c13.724 0 24.85-11.126 24.85-24.85v-198.8c0-13.724-11.126-24.85-24.85-24.85z" fill="#004a84"/></g><g><path d="m363.41 338.843h83.4c4.418 0 8-3.582 8-8v-17.133c0-4.418-3.582-8-8-8h-83.4c-4.418 0-8 3.582-8 8v17.133c0 4.418 3.581 8 8 8z" fill="#9be6ff"/></g><g><path d="m446.809 305.71h-22.748c4.418 0 8 3.582 8 8v17.133c0 4.418-3.582 8-8 8h22.748c4.418 0 8-3.582 8-8v-17.133c0-4.419-3.581-8-8-8z" fill="#55cbfc"/></g><g><g><path d="m231.443 355.41h-66.833c-4.418 0-8-3.582-8-8v-50.266c0-4.418 3.582-8 8-8h66.833c4.418 0 8 3.582 8 8v50.266c0 4.418-3.582 8-8 8z" fill="#ffc200"/></g><g><path d="m156.61 329.776h82.833v-15h-33.917v-25.633h-15v25.633h-33.916z" fill="#fe9900"/></g></g><g><path d="m342.952 44.22h19.919v33.133h-19.919z" fill="#003165" transform="matrix(.866 -.5 .5 .866 16.888 184.6)"/></g></g><g><path d="m479.659 248.51h-72.427l27.649-15.963c15.448-8.919 20.76-28.743 11.841-44.191l-85.052-147.317-1.922-3.329-12.424-21.52c-4.32-7.483-11.297-12.836-19.644-15.073-8.349-2.238-17.065-1.088-24.548 3.232l-154.14 88.993c-3.587 2.071-4.816 6.658-2.745 10.245s6.658 4.817 10.245 2.745l154.14-88.993c8.284-4.782 18.917-1.935 23.701 6.351l8.675 15.025-316.994 183.016-8.675-15.026c-2.317-4.013-2.933-8.689-1.733-13.166 1.2-4.476 4.07-8.217 8.084-10.535l105.905-61.144c3.587-2.071 4.816-6.658 2.745-10.245s-6.658-4.817-10.245-2.745l-105.906 61.145c-7.483 4.32-12.836 11.296-15.073 19.643-2.236 8.346-1.089 17.064 3.232 24.547l12.423 21.517c.001.001.001.003.002.004l12.425 21.521 74.55 129.125c2.93 5.074 7.173 9.228 12.228 12.056v81.232c0 17.838 14.512 32.35 32.35 32.35h226.715c4.143 0 7.5-3.358 7.5-7.5s-3.357-7.5-7.5-7.5h-226.714c-9.567 0-17.35-7.783-17.35-17.35v-85.724c.004-.085-.001-.168 0-.253v-112.823c0-9.567 7.783-17.35 17.35-17.35h230.9c.008 0 .015.001.023.001.007 0 .015-.001.023-.001h100.387c9.567 0 17.351 7.783 17.351 17.35v198.8c0 9.567-7.783 17.35-17.351 17.35h-74.616c-4.143 0-7.5 3.358-7.5 7.5s3.357 7.5 7.5 7.5h74.616c17.838 0 32.351-14.512 32.351-32.35v-198.8c-.001-17.838-14.514-32.35-32.352-32.35zm-129.151-196.805 2.637 4.568 6.429 11.136-316.993 183.017-9.067-15.704zm-234.531 229.155v96.692l-65.897-114.136 316.994-183.017 66.658 115.456c4.783 8.285 1.934 18.917-6.351 23.701l-50.149 28.954h-228.905c-17.838 0-32.35 14.512-32.35 32.35z"/><path d="m389.037 154.707c-2.07-3.587-6.66-4.816-10.245-2.745l-71.736 41.417c-3.587 2.071-4.816 6.658-2.745 10.245 1.389 2.406 3.91 3.751 6.502 3.751 1.272 0 2.563-.324 3.743-1.006l71.736-41.417c3.587-2.071 4.816-6.658 2.745-10.245z"/><path d="m402.858 193.646c3.587-2.071 4.816-6.658 2.745-10.245s-6.66-4.816-10.245-2.745l-28.694 16.567c-3.587 2.071-4.816 6.658-2.745 10.245 1.39 2.406 3.91 3.751 6.502 3.751 1.272 0 2.563-.324 3.743-1.006z"/><path d="m363.409 346.343h83.4c8.547 0 15.5-6.953 15.5-15.5v-17.133c0-8.547-6.953-15.5-15.5-15.5h-83.4c-8.547 0-15.5 6.953-15.5 15.5v17.133c0 8.547 6.953 15.5 15.5 15.5zm-.5-32.633c0-.276.225-.5.5-.5h83.4c.275 0 .5.224.5.5v17.133c0 .276-.225.5-.5.5h-83.4c-.275 0-.5-.224-.5-.5z"/><path d="m246.943 347.41v-50.267c0-8.547-6.953-15.5-15.5-15.5h-66.833c-8.547 0-15.5 6.953-15.5 15.5v50.267c0 8.547 6.953 15.5 15.5 15.5h66.833c8.547 0 15.5-6.953 15.5-15.5zm-15-50.267v17.633h-26.417v-18.133h25.917c.276 0 .5.224.5.5zm-67.333-.5h25.917v18.133h-26.417v-17.633c0-.276.224-.5.5-.5zm-.5 50.767v-17.633h67.833v17.633c0 .276-.224.5-.5.5h-66.833c-.276 0-.5-.224-.5-.5z"/><path d="m156.61 430.743c-4.142 0-7.5 3.358-7.5 7.5s3.358 7.5 7.5 7.5h33.133c4.142 0 7.5-3.358 7.5-7.5s-3.358-7.5-7.5-7.5z"/><path d="m222.876 445.743h99.4c4.143 0 7.5-3.358 7.5-7.5s-3.357-7.5-7.5-7.5h-99.4c-4.142 0-7.5 3.358-7.5 7.5s3.358 7.5 7.5 7.5z"/><path d="m355.409 445.743h49.7c4.143 0 7.5-3.358 7.5-7.5s-3.357-7.5-7.5-7.5h-49.7c-4.143 0-7.5 3.358-7.5 7.5s3.358 7.5 7.5 7.5z"/></g></g></svg>