<svg height="512" viewBox="0 0 64 64" width="512" xmlns="http://www.w3.org/2000/svg"><g id="Filled_outline" data-name="Filled outline"><path d="m3 43h56v14h-56z" fill="#66342e"/><circle cx="50" cy="50" fill="#f4f4e6" r="3"/><g fill="#ffd782"><path d="m37 43h4v14h-4z"/><path d="m29 43h4v14h-4z"/><path d="m7 43h8v14h-8z"/></g><path d="m10 47h2v2h-2z" fill="#d3843d"/><path d="m10 51h2v2h-2z" fill="#d3843d"/><path d="m13 33h48v10h-48z" fill="#d3843d" transform="matrix(-1 0 0 -1 74 76)"/><path d="m49 33h8v10h-8z" fill="#fcf05a" transform="matrix(-1 0 0 -1 106 76)"/><path d="m37 33h8v10h-8z" fill="#fcf05a" transform="matrix(-1 0 0 -1 82 76)"/><path d="m5 21h52v12h-52z" fill="#ad6327"/><path d="m9 21h12v12h-12z" fill="#ffd782"/><path d="m41 21h12v12h-12z" fill="#ffd782"/><path d="m29 25h12v4h-12z" fill="#ffd782" transform="matrix(0 -1 1 0 8 62)"/><circle cx="15" cy="27" fill="#f4f4e6" r="2"/><circle cx="24" cy="13" fill="#50b4f8" r="6"/><circle cx="42" cy="13" fill="#50b4f8" r="6"/><path d="m46 50a4 4 0 1 0 4-4 4 4 0 0 0 -4 4zm4-2a2 2 0 1 1 -2 2 2 2 0 0 1 2-2z"/><path d="m22 46h2v8h-2z"/><path d="m18 46h2v8h-2z"/><path d="m10 47h2v2h-2z"/><path d="m10 51h2v2h-2z"/><path d="m58 20h-54v14h8v8h-10v16h58v-14h2v-12h-4zm-50 12h-2v-10h2zm-2 24h-2v-12h2zm48-34h2v10h-2zm2 12v8h-6v-8zm-14-12h10v10h-10zm6 12v8h-2v-8zm-10-12h2v10h-2zm-16 0h10v10h-10zm-12 10v-10h10v10zm4 24h-6v-12h6zm14 0h-12v-12h12zm4 0h-2v-12h2zm4 0h-2v-12h2zm0-14h-22v-8h22zm0-10h-2v-10h2zm4 24h-2v-12h2zm-2-14v-8h6v8zm20 14h-16v-12h16zm2-22v8h-2v-8z"/><path d="m15 30a3 3 0 1 0 -3-3 3 3 0 0 0 3 3zm0-4a1 1 0 1 1 -1 1 1 1 0 0 1 1-1z"/><path d="m31 13a2 2 0 0 1 4 0 7 7 0 0 0 13.92 1h2.08v-2h-2.08a6.988 6.988 0 0 0 -13.254-1.96 3.937 3.937 0 0 0 -5.332 0 6.988 6.988 0 0 0 -13.254 1.96h-2.08v2h2.08a7 7 0 0 0 13.92-1zm11-5a4.971 4.971 0 0 1 3.8 1.787l-3.506 3.506 1.414 1.414 3.078-3.078a4.937 4.937 0 0 1 .214 1.371 4.978 4.978 0 0 1 -8.8 3.213l4.506-4.506-1.414-1.414-4.078 4.078a4.937 4.937 0 0 1 -.214-1.371 5.006 5.006 0 0 1 5-5zm-18 10a4.971 4.971 0 0 1 -3.8-1.787l3.506-3.506-1.414-1.414-3.078 3.078a4.937 4.937 0 0 1 -.214-1.371 4.978 4.978 0 0 1 8.8-3.213l-3.506 3.506 1.414 1.414 3.078-3.078a4.937 4.937 0 0 1 .214 1.371 5.006 5.006 0 0 1 -5 5z"/></g></svg>