<svg id="Capa_1" enable-background="new 0 0 512 512" height="150" viewBox="0 0 512 512" width="150" xmlns="http://www.w3.org/2000/svg"><g><g><g><g><path d="m487.934 342.116v145.816c0 9.15-7.418 16.568-16.568 16.568h-430.732c-9.15 0-16.568-7.418-16.568-16.568v-145.816z" fill="#ffc200"/></g><g><path d="m24.066 342.116h451.934v28h-451.934z" fill="#fe9900"/></g><g><path d="m464.934 342.116v145.816c0 9.15-7.417 16.568-16.568 16.568h23c9.15 0 16.568-7.417 16.568-16.568v-145.816z" fill="#fe9900"/></g><g><path d="m413.141 106.9c5.35 0 10.371 2.584 13.481 6.938l76.635 123.59c.813 1.311 1.243 2.823 1.243 4.365v97.041c0 4.575-3.709 8.283-8.283 8.283h-480.434c-4.575 0-8.283-3.709-8.283-8.283v-97.041c0-1.542.431-3.054 1.243-4.365l76.635-123.59c3.11-4.354 8.131-6.938 13.481-6.938z" fill="#ffd900"/></g><g><path d="m7.85 239.433h496.301c-.209-.701-.505-1.377-.894-2.005l-76.635-123.59c-3.11-4.354-8.131-6.938-13.481-6.938h-314.282c-5.35 0-10.371 2.584-13.481 6.938l-76.635 123.59c-.389.628-.685 1.304-.893 2.005z" fill="#ffc200"/></g><g><path d="m503.257 237.428-76.635-123.59c-3.11-4.354-8.131-6.938-13.481-6.938h-23c5.35 0 10.371 2.584 13.481 6.938l76.635 123.59c.813 1.311 1.244 2.823 1.244 4.365v97.041c0 4.575-3.709 8.283-8.283 8.283h23c4.575 0 8.283-3.709 8.283-8.283v-97.041c-.001-1.543-.431-3.055-1.244-4.365z" fill="#ffc200"/></g><g><path d="m403.622 113.838 76.635 123.59c.389.628.685 1.304.894 2.005h23c-.104-.35-.23-.694-.379-1.029-.15-.335-.32-.662-.515-.976l-76.635-123.59c-3.11-4.354-8.131-6.938-13.481-6.938h-23c5.35 0 10.371 2.584 13.481 6.938z" fill="#fe9900"/></g><g><path d="m181.734 471.366h-116.534c-4.418 0-8-3.582-8-8v-75.116c0-4.418 3.582-8 8-8h116.533c4.418 0 8 3.582 8 8v75.117c.001 4.418-3.581 7.999-7.999 7.999z" fill="#f3edea"/></g><g><path d="m181.734 380.25h-23c4.418 0 8 3.582 8 8v75.117c0 4.418-3.582 8-8 8h23c4.418 0 8-3.582 8-8v-75.117c0-4.418-3.582-8-8-8z" fill="#e3dcda"/></g><g><path d="m181.734 380.25h-116.534c-4.418 0-8 3.582-8 8v25.133h132.533v-25.133c.001-4.418-3.581-8-7.999-8z" fill="#ff5b5b"/></g><g><path d="m181.734 380.25h-23c4.418 0 8 3.582 8 8v25.133h23v-25.133c0-4.418-3.582-8-8-8z" fill="#e50048"/></g></g><g><path d="m108.697 131.75c-2.856 0-5.511 1.471-7.024 3.893l-41.416 66.267c-3.448 5.517.518 12.674 7.024 12.674h377.438c6.506 0 10.472-7.156 7.024-12.674l-41.417-66.267c-1.514-2.422-4.168-3.893-7.024-3.893z" fill="#fe9900"/></g><g><g><circle cx="256" cy="98.617" fill="#7fe881" r="91.117"/></g><g><path d="m256 7.5c-3.895 0-7.733.246-11.5.72 44.893 5.654 79.616 43.969 79.616 90.396s-34.723 84.743-79.616 90.396c3.767.474 7.605.72 11.5.72 50.322 0 91.116-40.794 91.116-91.117 0-50.32-40.794-91.115-91.116-91.115z" fill="#5bc980"/></g><g><g><path d="m242.263 149.725-41.82-41.821c-3.235-3.235-3.235-8.479 0-11.714l11.714-11.714c3.235-3.235 8.48-3.235 11.714 0l16.778 16.778c3.388 3.388 8.936 3.203 12.091-.403l35.038-40.043c3.013-3.443 8.246-3.792 11.689-.779l12.467 10.909c3.443 3.012 3.792 8.245.779 11.688l-58.359 66.696c-3.155 3.607-8.703 3.792-12.091.403z" fill="#f3edea"/></g></g></g></g><g><path d="m511.342 237.301c-.025-.084-.052-.166-.08-.248-.393-1.249-.934-2.452-1.631-3.577l-76.635-123.59c-.086-.139-.176-.274-.271-.407-4.508-6.311-11.829-10.078-19.584-10.078h-58.534c.002-.261.01-.521.01-.783 0-54.379-44.24-98.618-98.617-98.618s-98.617 44.239-98.617 98.617c0 .262.008.522.01.783h-58.534c-7.755 0-15.076 3.768-19.584 10.078-.095.133-.185.269-.271.407l-76.635 123.591c-.7 1.129-1.242 2.337-1.635 3.59-.025.075-.05.15-.073.227-.433 1.453-.661 2.967-.661 4.5v97.04c0 8.703 7.081 15.783 15.783 15.783h.783v133.316c0 13.271 10.796 24.067 24.067 24.067h343.917c4.142 0 7.5-3.357 7.5-7.5s-3.358-7.5-7.5-7.5h-343.916c-5 0-9.067-4.067-9.067-9.067v-133.316h43.767c4.142 0 7.5-3.357 7.5-7.5s-3.358-7.5-7.5-7.5h-59.55c-.432 0-.783-.352-.783-.783v-91.9h482v91.9c0 .432-.352.783-.783.783h-390.885c-4.142 0-7.5 3.357-7.5 7.5s3.358 7.5 7.5 7.5h375.101v133.316c0 5-4.067 9.067-9.067 9.067h-56.817c-4.142 0-7.5 3.357-7.5 7.5s3.358 7.5 7.5 7.5h56.816c13.271 0 24.067-10.797 24.067-24.067v-133.316h.783c8.703 0 15.783-7.08 15.783-15.783v-97.04c.001-1.53-.226-3.041-.657-4.492zm-255.342-40.068c39.9 0 74.34-23.819 89.851-57.983h57.451c.271 0 .52.138.664.368l41.417 66.268c.073.116.244.391.021.794-.224.403-.547.403-.686.403h-377.437c-.138 0-.462 0-.686-.403-.223-.403-.052-.678.021-.795l41.417-66.267c.144-.23.393-.368.664-.368h57.451c15.512 34.165 49.952 57.983 89.852 57.983zm0-182.233c46.106 0 83.617 37.511 83.617 83.617s-37.51 83.616-83.617 83.616-83.617-37.51-83.617-83.616 37.511-83.617 83.617-83.617zm-164.396 103.029c1.707-2.276 4.403-3.629 7.255-3.629h59.793c.54 3.342 1.249 6.628 2.117 9.85h-52.072c-5.477 0-10.481 2.773-13.384 7.419l-41.417 66.266c-3.04 4.863-3.201 11-.421 16.016 2.78 5.017 8.07 8.133 13.805 8.133h377.438c5.735 0 11.025-3.116 13.805-8.133 2.78-5.016 2.619-11.152-.421-16.015l-41.417-66.267c-2.903-4.646-7.907-7.419-13.384-7.419h-52.072c.868-3.222 1.577-6.507 2.117-9.85h59.793c2.852 0 5.548 1.353 7.255 3.629l70.628 113.903h-470.047z"/><path d="m65.2 372.75c-8.547 0-15.5 6.953-15.5 15.5v75.116c0 8.547 6.953 15.5 15.5 15.5h116.533c8.547 0 15.5-6.953 15.5-15.5v-75.116c0-8.547-6.953-15.5-15.5-15.5zm116.533 91.116h-116.533c-.276 0-.5-.225-.5-.5v-42.483h117.533v42.483c0 .276-.224.5-.5.5zm.5-75.616v17.633h-117.533v-17.633c0-.275.224-.5.5-.5h116.533c.276 0 .5.225.5.5z"/><path d="m90.334 430.733c-4.142 0-7.5 3.357-7.5 7.5v8.283c0 4.143 3.358 7.5 7.5 7.5s7.5-3.357 7.5-7.5v-8.283c0-4.142-3.358-7.5-7.5-7.5z"/><path d="m123.467 430.733c-4.142 0-7.5 3.357-7.5 7.5v8.283c0 4.143 3.358 7.5 7.5 7.5s7.5-3.357 7.5-7.5v-8.283c0-4.142-3.358-7.5-7.5-7.5z"/><path d="m156.6 430.733c-4.142 0-7.5 3.357-7.5 7.5v8.283c0 4.143 3.358 7.5 7.5 7.5s7.5-3.357 7.5-7.5v-8.283c0-4.142-3.358-7.5-7.5-7.5z"/><path d="m236.96 155.029c2.955 2.954 6.998 4.622 11.166 4.622.172 0 .346-.003.519-.009 4.349-.145 8.487-2.105 11.353-5.381l58.359-66.696c5.73-6.55 5.065-16.54-1.485-22.271l-12.467-10.909c-3.173-2.775-7.24-4.16-11.443-3.87-4.207.28-8.052 2.183-10.829 5.355l-35.038 40.043c-.148.17-.338.26-.563.267-.238.022-.42-.069-.581-.229l-16.778-16.777c-6.153-6.152-16.167-6.152-22.32 0l-11.715 11.715c-6.153 6.153-6.153 16.167 0 22.321zm-31.214-53.535 11.714-11.714c.306-.307.803-.307 1.108 0l16.777 16.776c3.077 3.077 7.324 4.766 11.686 4.615 4.35-.145 8.487-2.106 11.353-5.382l35.038-40.043c.142-.162.323-.251.537-.266.211-.01.406.05.568.192l12.467 10.909c.325.284.358.78.074 1.105l-58.358 66.695c-.149.17-.338.26-.564.268-.229-.006-.421-.069-.581-.229h.001l-41.819-41.819c-.306-.304-.306-.802-.001-1.107z"/></g></g></svg>