 <svg id="Capa_1" enable-background="new 0 0 512 512" height="150" viewBox="0 0 512 512" width="150" xmlns="http://www.w3.org/2000/svg"><g><g><g><g><g><path d="m487.851 234.416.083 253.517c0 9.15-7.417 16.568-16.567 16.568h-430.733c-9.15 0-16.567-7.418-16.567-16.568l-.083-253.517z" fill="#ffc200"/></g><g><path d="m23.983 234.416h451.934v28h-451.934z" fill="#fe9900"/></g><g><path d="m464.851 234.416.083 253.517c0 9.15-7.417 16.568-16.568 16.568h23c9.15 0 16.568-7.418 16.568-16.568l-.083-253.517z" fill="#fe9900"/></g><g><path d="m413.141 7.5c5.35 0 10.371 2.584 13.481 6.937l76.635 123.59c.813 1.311 1.243 2.823 1.243 4.365l-.083 88.74c0 4.575-3.709 8.283-8.283 8.283h-480.434c-4.575 0-8.283-3.709-8.283-8.283l.083-88.74c0-1.542.431-3.054 1.244-4.365l76.635-123.59c3.11-4.354 8.131-6.938 13.481-6.938h314.281z" fill="#ffd900"/></g><g><path d="m7.849 140.033h496.301c-.209-.701-.505-1.378-.894-2.005l-76.635-123.59c-3.11-4.354-8.131-6.938-13.481-6.938h-314.281c-5.35 0-10.371 2.584-13.481 6.938l-76.635 123.59c-.389.628-.685 1.304-.894 2.005z" fill="#ffc200"/></g><g><path d="m503.256 138.028-76.635-123.59c-3.11-4.354-8.131-6.938-13.481-6.938h-23c5.35 0 10.371 2.584 13.481 6.938l76.635 123.59c.813 1.311 1.244 2.823 1.244 4.365l-.083 88.74c0 4.575-3.709 8.283-8.283 8.283h23c4.575 0 8.283-3.709 8.283-8.283l.083-88.74c0-1.543-.431-3.054-1.244-4.365z" fill="#ffc200"/></g><g><path d="m403.622 14.438 76.635 123.59c.389.628.685 1.304.894 2.005h23c-.104-.35-.23-.694-.379-1.029-.15-.335-.32-.662-.515-.976l-76.635-123.59c-3.11-4.354-8.131-6.938-13.481-6.938h-23c5.35 0 10.371 2.584 13.481 6.938z" fill="#fe9900"/></g><g><path d="m181.733 471.366h-116.533c-4.418 0-8-3.582-8-8v-75.116c0-4.418 3.582-8 8-8h116.533c4.418 0 8 3.582 8 8v75.117c0 4.417-3.581 7.999-8 7.999z" fill="#f3edea"/></g><g><path d="m181.733 380.25h-23c4.418 0 8 3.582 8 8v75.117c0 4.418-3.582 8-8 8h23c4.418 0 8-3.582 8-8v-75.117c0-4.419-3.581-8-8-8z" fill="#e3dcda"/></g><g><path d="m181.733 380.25h-116.533c-4.418 0-8 3.582-8 8v25.133h132.533v-25.133c0-4.419-3.581-8-8-8z" fill="#ff5b5b"/></g><g><path d="m181.733 380.25h-23c4.418 0 8 3.582 8 8v25.133h23v-25.133c0-4.419-3.581-8-8-8z" fill="#e50048"/></g></g><g><g><path d="m305.7 140.033v5h-99.4v-5l16.567-132.533h66.266z" fill="#f3edea"/></g><g><path d="m206.3 234.433v46.417c0 4.575 3.709 8.283 8.283 8.283h82.833c4.575 0 8.283-3.709 8.283-8.283v-46.417z" fill="#f3edea"/></g><g><path d="m282.5 234.433v46.417c0 4.575-3.709 8.283-8.283 8.283h23.2c4.575 0 8.284-3.708 8.284-8.283v-46.417z" fill="#e3dcda"/></g><g><g><g><path d="m132.033 355.4h-66.833c-4.418 0-8-3.582-8-8v-66.833c0-4.418 3.582-8 8-8h66.833c4.418 0 8 3.582 8 8v66.833c0 4.418-3.581 8-8 8z" fill="#7fe881"/></g></g></g><g><path d="m289.133 7.5h-23.2l16.567 132.533h23.2z" fill="#e3dcda"/></g><g><path d="m206.3 140.033h99.4v99.4h-99.4z" fill="#e3dcda"/></g><g><path d="m282.5 139.733h23v100h-23z" fill="#dbceca"/></g></g><g><circle cx="413.383" cy="380.25" fill="#ff5b5b" r="91.117"/></g><g><path d="m413.383 289.133c-3.895 0-7.733.246-11.5.72 44.893 5.654 79.617 43.97 79.617 90.397s-34.723 84.742-79.617 90.397c3.767.474 7.605.72 11.5.72 50.322 0 91.117-40.794 91.117-91.116 0-50.324-40.794-91.118-91.117-91.118z" fill="#e50048"/></g></g><g><path d="m463.083 363.683h-99.4c-4.575 0-8.283 3.709-8.283 8.283v16.567c0 4.575 3.709 8.283 8.283 8.283h99.4c4.575 0 8.283-3.708 8.283-8.283v-16.567c0-4.574-3.708-8.283-8.283-8.283z" fill="#f3edea"/></g></g><g><path d="m496.217 246.934c8.703 0 15.783-7.08 15.783-15.783v-88.758c0-1.529-.227-3.04-.658-4.492-.025-.083-.052-.165-.079-.246-.393-1.249-.934-2.453-1.632-3.579l-76.635-123.59c-.086-.139-.176-.274-.271-.407-4.508-6.311-11.829-10.079-19.584-10.079h-124.008-66.267-124.007c-7.755 0-15.076 3.768-19.584 10.078-.095.133-.185.269-.271.407l-76.636 123.592c-.7 1.129-1.242 2.338-1.635 3.592-.025.074-.049.148-.072.223-.433 1.454-.661 2.968-.661 4.501v88.758c0 8.703 7.081 15.783 15.783 15.783h.783v240.999c0 13.271 10.796 24.067 24.067 24.067h343.917c4.142 0 7.5-3.357 7.5-7.5s-3.358-7.5-7.5-7.5h-343.916c-5 0-9.067-4.067-9.067-9.067v-240.999h42.983c4.142 0 7.5-3.357 7.5-7.5s-3.358-7.5-7.5-7.5h-50.464c-.007 0-.013-.001-.019-.001s-.013.001-.019.001h-8.264c-.432 0-.783-.352-.783-.783v-83.617h183.8v84.4h-93.466c-4.142 0-7.5 3.357-7.5 7.5s3.358 7.5 7.5 7.5h93.465v33.916c0 8.703 7.081 15.783 15.784 15.783h82.833c8.703 0 15.784-7.08 15.784-15.783v-33.916h167.233v61.072c-17.609-16.354-41.18-26.373-67.05-26.373-54.377 0-98.617 44.239-98.617 98.617 0 54.377 44.239 98.616 98.617 98.616 25.871 0 49.442-10.019 67.05-26.373v35.439c0 5-4.067 9.067-9.067 9.067h-56.817c-4.142 0-7.5 3.357-7.5 7.5s3.358 7.5 7.5 7.5h56.816c13.271 0 24.067-10.797 24.067-24.067v-53.037c10.46-15.652 16.567-34.448 16.567-54.645 0-20.198-6.107-38.994-16.566-54.646v-78.67zm-82.834 216.932c-46.106 0-83.617-37.51-83.617-83.616s37.51-83.617 83.617-83.617 83.617 37.511 83.617 83.617-37.51 83.616-83.617 83.616zm82.834-231.932h-8.264c-.007 0-.013-.001-.019-.001s-.013.001-.019.001h-174.715v-84.4h183.8v83.617c0 .431-.352.783-.783.783zm-282.417-84.401h84.4v84.4h-84.4zm206.596-128.904 70.629 113.904h-178.704l-14.692-117.533h115.512c2.852 0 5.549 1.353 7.255 3.629zm-137.884-3.629 14.692 117.533h-82.408l14.692-117.533zm-190.909 3.629c1.707-2.276 4.404-3.629 7.256-3.629h115.512l-14.692 117.533h-178.705zm205.813 263.004h-82.833c-.432 0-.784-.352-.784-.783v-33.916h84.4v33.916c.001.431-.35.783-.783.783z"/><path d="m49.7 463.366c0 8.547 6.953 15.5 15.5 15.5h116.533c8.547 0 15.5-6.953 15.5-15.5v-75.116c0-8.547-6.953-15.5-15.5-15.5h-116.533c-8.547 0-15.5 6.953-15.5 15.5zm132.033.5h-116.533c-.276 0-.5-.225-.5-.5v-42.483h117.533v42.483c0 .276-.224.5-.5.5zm-116.533-76.116h116.533c.276 0 .5.225.5.5v17.633h-117.533v-17.633c0-.275.224-.5.5-.5z"/><path d="m90.333 430.733c-4.142 0-7.5 3.357-7.5 7.5v8.283c0 4.143 3.358 7.5 7.5 7.5s7.5-3.357 7.5-7.5v-8.283c0-4.142-3.357-7.5-7.5-7.5z"/><path d="m123.467 430.733c-4.142 0-7.5 3.357-7.5 7.5v8.283c0 4.143 3.358 7.5 7.5 7.5s7.5-3.357 7.5-7.5v-8.283c0-4.142-3.358-7.5-7.5-7.5z"/><path d="m156.6 430.733c-4.142 0-7.5 3.357-7.5 7.5v8.283c0 4.143 3.358 7.5 7.5 7.5s7.5-3.357 7.5-7.5v-8.283c0-4.142-3.358-7.5-7.5-7.5z"/><path d="m65.2 362.899h66.833c8.547 0 15.5-6.953 15.5-15.5v-66.833c0-8.547-6.953-15.5-15.5-15.5h-66.833c-8.547 0-15.5 6.953-15.5 15.5v66.833c0 8.547 6.953 15.5 15.5 15.5zm-.5-82.333c0-.275.224-.5.5-.5h66.833c.276 0 .5.225.5.5v66.833c0 .275-.224.5-.5.5h-66.833c-.276 0-.5-.225-.5-.5z"/><path d="m363.683 356.184c-8.703 0-15.783 7.08-15.783 15.783v16.566c0 8.703 7.081 15.783 15.783 15.783h99.4c8.703 0 15.784-7.08 15.784-15.783v-16.566c0-8.703-7.081-15.783-15.784-15.783zm100.184 15.783v16.566c0 .432-.352.783-.784.783h-99.4c-.432 0-.783-.352-.783-.783v-16.566c0-.432.352-.783.783-.783h99.4c.432 0 .784.351.784.783z"/></g><path d="m120.487 308.68-16.567-16.566c-2.929-2.928-7.678-2.928-10.606 0l-16.567 16.566c-2.929 2.93-2.929 7.678 0 10.607 2.929 2.928 7.678 2.928 10.606 0l3.763-3.763v15.026c0 4.143 3.358 7.5 7.5 7.5s7.5-3.357 7.5-7.5v-15.026l3.764 3.764c1.464 1.464 3.384 2.196 5.303 2.196s3.839-.732 5.303-2.196c2.93-2.931 2.93-7.679.001-10.608z"/></g></svg>
   