<svg id="Capa_1" enable-background="new 0 0 512 512" height="150" viewBox="0 0 512 512" width="150" xmlns="http://www.w3.org/2000/svg"><g><g><g><g><path d="m40.633 351h248.5v91.633h-248.5z" fill="#e3dcda"/></g><g><path d="m147.042 244.592h35.683v248.5h-35.683z" fill="#dbceca" transform="matrix(0 1 -1 0 533.725 203.958)"/></g><g><path d="m330.55 115.183c4.575 0 8.283 3.709 8.283 8.283v57.984h5v182.233h-328.05c-4.575 0-8.283-3.708-8.283-8.283v-231.934c0-4.575 3.709-8.283 8.283-8.283z" fill="#f3edea"/></g><g><g><path d="m57.2 297.417c0 9.15 7.417 16.567 16.567 16.567 9.149 0 16.567-7.417 16.567-16.567v-115.967c0-9.15-7.417-16.567-16.567-16.567s-16.567 7.417-16.567 16.567z" fill="#d1cbc9"/></g><g><path d="m256 297.417c0 9.15 7.417 16.567 16.567 16.567 9.149 0 16.567-7.417 16.567-16.567v-115.967c0-9.15-7.417-16.567-16.567-16.567s-16.567 7.417-16.567 16.567z" fill="#d1cbc9"/></g><g><path d="m156.6 172.994v124.422c0 9.15 7.417 16.567 16.567 16.567 9.149 0 16.567-7.417 16.567-16.567v-124.077z" fill="#d1cbc9"/></g></g><g><path d="m338.833 436.95v-255.5h82.196c6.661 0 12.675 3.99 15.264 10.127l50.989 120.862c.43 1.019.651 2.114.651 3.22v121.291z" fill="#ffc200"/></g><g><path d="m399.578 214.583h-19.328c-4.575 0-8.283 3.709-8.283 8.283v82.834c0 4.575 3.708 8.283 8.283 8.283h53.842c5.911 0 9.919-6.013 7.646-11.469l-34.514-82.833c-1.286-3.087-4.302-5.098-7.646-5.098z" fill="#9be6ff"/></g><g><path d="m487.282 312.439-50.989-120.862c-2.589-6.137-8.603-10.127-15.264-10.127h-23.067c6.661 0 12.675 3.99 15.264 10.127l50.989 120.862c.43 1.019.651 2.114.651 3.22v121.291h23.067v-121.291c0-1.106-.221-2.201-.651-3.22z" fill="#fe9900"/></g><g><path d="m487.933 396.817h-41.7c-4.418 0-8-3.582-8-8v-17.133c0-4.418 3.582-8 8-8h41.7z" fill="#9be6ff"/></g><g><path d="m330.55 115.183h-23c4.575 0 8.283 3.709 8.283 8.283v240.217h23v-240.217c0-4.574-3.708-8.283-8.283-8.283z" fill="#e3dcda"/></g><g><path d="m15.783 463.083c-4.575 0-8.283-3.709-8.283-8.283v-16.567c0-4.575 3.709-8.283 8.283-8.283h460.583v33.133z" fill="#f3edea"/></g><g><path d="m281.133 479.65h-83.4c-4.418 0-8-3.582-8-8v-33.7c0-4.418 3.582-8 8-8h83.4c4.418 0 8 3.582 8 8v33.7c0 4.418-3.581 8-8 8z" fill="#ffc200"/></g><g><path d="m281.133 429.95h-23c4.418 0 8 3.582 8 8v33.7c0 4.418-3.582 8-8 8h23c4.418 0 8-3.582 8-8v-33.7c0-4.418-3.581-8-8-8z" fill="#fe9900"/></g><g><path d="m479.367 479.65h17.133c4.418 0 8-3.582 8-8v-33.7c0-4.418-3.582-8-8-8h-25.133v41.7c0 4.418 3.581 8 8 8z" fill="#d1cbc9"/></g><g><g><g><circle cx="371.967" cy="454.8" fill="#0068ae" r="49.7"/></g><g><circle cx="371.967" cy="454.8" fill="#f3edea" r="16.567"/></g></g><g><path d="m371.967 405.1c-3.96 0-7.807.477-11.5 1.352 21.901 5.191 38.2 24.86 38.2 48.348s-16.299 43.157-38.2 48.348c3.693.875 7.54 1.352 11.5 1.352 27.449 0 49.7-22.251 49.7-49.7s-22.252-49.7-49.7-49.7z" fill="#004a84"/></g><g><path d="m371.967 438.233c-4.471 0-8.52 1.779-11.5 4.657 3.119 3.013 5.067 7.23 5.067 11.909s-1.947 8.897-5.067 11.909c2.98 2.878 7.029 4.658 11.5 4.658 9.15 0 16.567-7.417 16.567-16.567-.001-9.148-7.418-16.566-16.567-16.566z" fill="#e3dcda"/></g></g><g><g><g><circle cx="106.9" cy="454.8" fill="#0068ae" r="49.7"/></g><g><circle cx="106.9" cy="454.8" fill="#f3edea" r="16.567"/></g></g><g><path d="m106.9 405.1c-3.96 0-7.807.477-11.5 1.352 21.901 5.191 38.2 24.86 38.2 48.348s-16.299 43.157-38.2 48.348c3.693.875 7.54 1.352 11.5 1.352 27.449 0 49.7-22.251 49.7-49.7s-22.251-49.7-49.7-49.7z" fill="#004a84"/></g><g><path d="m106.9 438.233c-4.471 0-8.52 1.779-11.5 4.657 3.119 3.013 5.067 7.23 5.067 11.909s-1.947 8.897-5.067 11.909c2.98 2.878 7.029 4.658 11.5 4.658 9.149 0 16.567-7.417 16.567-16.567 0-9.148-7.418-16.566-16.567-16.566z" fill="#e3dcda"/></g></g></g><g><g><ellipse cx="173.167" cy="98.617" fill="#7fe881" rx="91.117" ry="91.117" transform="matrix(.707 -.707 .707 .707 -19.013 151.332)"/></g><g><g><path d="m173.167 7.5c-3.896 0-7.733.246-11.5.72 44.893 5.654 79.617 43.97 79.617 90.397s-34.723 84.743-79.617 90.397c3.767.474 7.604.72 11.5.72 50.322 0 91.117-40.794 91.117-91.117s-40.795-91.117-91.117-91.117z" fill="#5bc980"/></g></g><g><g><path d="m159.43 149.725-41.82-41.821c-3.235-3.235-3.235-8.479 0-11.714l11.714-11.714c3.235-3.235 8.48-3.235 11.714 0l16.778 16.778c3.388 3.388 8.936 3.203 12.091-.403l35.038-40.044c3.012-3.443 8.246-3.792 11.689-.779l12.466 10.91c3.443 3.012 3.792 8.246.779 11.688l-58.359 66.697c-3.155 3.606-8.702 3.791-12.09.402z" fill="#f3edea"/></g></g></g><g><path d="m464.867 363.683h23.067v33.133h-23.067z" fill="#55cbfc"/></g></g><g><path d="m371.967 430.733c-13.271 0-24.066 10.796-24.066 24.066s10.796 24.067 24.066 24.067 24.066-10.796 24.066-24.067-10.796-24.066-24.066-24.066zm0 33.134c-4.999 0-9.066-4.067-9.066-9.067 0-4.999 4.067-9.066 9.066-9.066s9.066 4.067 9.066 9.066-4.067 9.067-9.066 9.067z"/><path d="m106.9 430.733c-13.271 0-24.067 10.796-24.067 24.066s10.797 24.067 24.067 24.067 24.066-10.796 24.066-24.067-10.795-24.066-24.066-24.066zm0 33.134c-5 0-9.067-4.067-9.067-9.067 0-4.999 4.067-9.066 9.067-9.066 4.999 0 9.066 4.067 9.066 9.066.001 4.999-4.067 9.067-9.066 9.067z"/><path d="m496.5 422.45h-1.066v-25.633-33.134-48.024c0-2.118-.417-4.182-1.241-6.135l-13.963-33.094c-1.612-3.817-6.015-5.604-9.825-3.995-3.816 1.61-5.605 6.009-3.995 9.826l13.961 33.092c.042.098.063.201.063.306v40.524h-34.2c-8.547 0-15.5 6.953-15.5 15.5v17.134c0 8.547 6.953 15.5 15.5 15.5h34.2v18.133h-9.066-52.261c-10.323-14.995-27.599-24.85-47.14-24.85-9.213 0-17.917 2.203-25.634 6.089v-40.006-174.733h74.696c3.654 0 6.934 2.175 8.354 5.542l24.345 57.706c1.609 3.817 6.014 5.605 9.825 3.995 3.816-1.61 5.605-6.009 3.995-9.825l-24.345-57.707c-3.77-8.937-12.474-14.712-22.174-14.712h-74.696v-50.484c0-8.703-7.08-15.783-15.783-15.783h-59.188c.274-2.987.421-6.009.421-9.066 0-54.377-44.239-98.616-98.616-98.616-54.378 0-98.617 44.239-98.617 98.617 0 3.057.147 6.08.421 9.066h-59.188c-8.703 0-15.783 7.081-15.783 15.783v72.949c0 4.142 3.357 7.5 7.5 7.5s7.5-3.358 7.5-7.5v-72.949c0-.432.352-.783.783-.783h61.742c8.83 35.076 36.498 62.744 71.574 71.575v103.159c0 13.271 10.797 24.067 24.067 24.067s24.066-10.796 24.066-24.067v-103.159c35.076-8.83 62.744-36.498 71.574-71.575h61.742c.432 0 .783.352.783.783v57.984 174.733h-42.2-248.5-24.85c-.432 0-.783-.352-.783-.783v-128.985c0-4.142-3.357-7.5-7.5-7.5s-7.5 3.358-7.5 7.5v128.985c0 8.703 7.08 15.783 15.783 15.783h17.35v51.267h-17.35c-8.701 0-15.781 7.08-15.781 15.783v16.567c0 8.703 7.08 15.784 15.783 15.784h36.149c6.871 23.885 28.903 41.416 54.968 41.416s48.097-17.531 54.967-41.417h20.366v1.066c0 8.547 6.953 15.5 15.5 15.5h83.399c8.547 0 15.5-6.953 15.5-15.5v-1.066h20.366c6.87 23.885 28.903 41.417 54.968 41.417s48.098-17.531 54.968-41.417h36.933v1.066c0 8.547 6.953 15.5 15.5 15.5h17.133c8.547 0 15.5-6.953 15.5-15.5v-33.7c0-8.546-6.953-15.499-15.5-15.499zm-50.267-33.133c-.275 0-.5-.224-.5-.5v-17.134c0-.276.225-.5.5-.5h34.2v18.134zm-264-91.9c0 4.999-4.067 9.067-9.066 9.067-5 0-9.067-4.067-9.067-9.067v-100.604c2.987.274 6.01.421 9.067.421s6.08-.147 9.066-.421zm-9.066-115.184c-46.107 0-83.617-37.51-83.617-83.617s37.511-83.616 83.617-83.616 83.616 37.51 83.616 83.617-37.51 83.616-83.616 83.616zm158.166 232.356c-2.394 2.419-4.57 5.05-6.506 7.862h-28.194v-51.267h34.7zm-283.2-43.406h233.5v51.267h-.5-83.399-43.694c-10.323-14.995-27.598-24.85-47.139-24.85s-36.817 9.855-47.14 24.85h-11.628zm-32.35 84.4c-.432 0-.783-.352-.783-.784v-16.566c0-.432.352-.783.783-.783h36.615c-1.747 5.475-2.698 11.303-2.698 17.35 0 .263.016.522.02.784h-33.937zm91.117 41.417c-23.27 0-42.2-18.931-42.2-42.2s18.931-42.2 42.2-42.2 42.199 18.931 42.199 42.2c.001 23.269-18.93 42.2-42.199 42.2zm57.18-41.417c.004-.262.02-.521.02-.784 0-6.047-.951-11.874-2.697-17.35h20.857c-.005.168-.025.331-.025.5v17.633h-18.155zm117.553 16.067c0 .276-.225.5-.5.5h-83.399c-.275 0-.5-.224-.5-.5v-33.7c0-.276.225-.5.5-.5h83.399c.275 0 .5.224.5.5zm15-16.067v-17.633c0-.169-.02-.332-.025-.5h20.857c-1.747 5.475-2.698 11.303-2.698 17.35 0 .263.016.522.02.784h-18.154zm75.334 41.417c-23.27 0-42.2-18.931-42.2-42.2s18.931-42.2 42.2-42.2 42.2 18.931 42.2 42.2-18.931 42.2-42.2 42.2zm57.18-41.417c.004-.262.02-.521.02-.784 0-6.047-.951-11.874-2.698-17.35h37.398v18.133h-34.72zm67.853 16.067c0 .276-.225.5-.5.5h-17.133c-.275 0-.5-.224-.5-.5v-8.566-25.634h17.633c.275 0 .5.224.5.5z"/><path d="m97.833 297.417v-115.967c0-13.271-10.796-24.066-24.066-24.066s-24.067 10.795-24.067 24.066v115.967c0 13.271 10.796 24.067 24.066 24.067s24.067-10.797 24.067-24.067zm-33.133 0v-115.967c0-4.999 4.067-9.066 9.066-9.066s9.066 4.067 9.066 9.066v115.967c0 4.999-4.067 9.067-9.066 9.067s-9.066-4.068-9.066-9.067z"/><path d="m296.633 297.417v-115.967c0-13.271-10.796-24.066-24.066-24.066s-24.067 10.795-24.067 24.066v115.967c0 13.271 10.796 24.067 24.066 24.067s24.067-10.797 24.067-24.067zm-33.133 0v-115.967c0-4.999 4.067-9.066 9.066-9.066s9.066 4.067 9.066 9.066v115.967c0 4.999-4.067 9.067-9.066 9.067s-9.066-4.068-9.066-9.067z"/><path d="m447.224 314.456c2.935-4.4 3.472-9.943 1.438-14.827l-34.515-82.833c-2.458-5.9-8.177-9.712-14.568-9.712h-19.329c-8.703 0-15.783 7.08-15.783 15.783v82.833c0 8.703 7.08 15.783 15.783 15.783h53.842c5.289 0 10.198-2.627 13.132-7.027zm-67.757-8.756v-82.833c0-.432.352-.783.783-.783h19.328c.317 0 .601.189.723.482l34.514 82.832c.045.106.162.388-.071.737-.232.349-.537.349-.651.349h-53.843c-.432-.001-.783-.352-.783-.784z"/><path d="m371.967 339.617c-4.143 0-7.5 3.358-7.5 7.5s3.357 7.5 7.5 7.5h33.133c4.143 0 7.5-3.358 7.5-7.5s-3.357-7.5-7.5-7.5z"/><path d="m234.039 65.294-12.467-10.909c-3.173-2.776-7.233-4.152-11.443-3.871-4.207.281-8.053 2.182-10.829 5.355l-35.037 40.043c-.148.17-.338.26-.563.267-.236.013-.421-.07-.58-.229l-16.778-16.778c-6.154-6.153-16.167-6.153-22.321 0l-11.714 11.714c-6.152 6.153-6.152 16.166 0 22.32l41.82 41.82c2.954 2.955 6.999 4.624 11.167 4.624.172 0 .346-.003.518-.009 4.35-.145 8.488-2.106 11.354-5.381l58.359-66.696c5.73-6.547 5.064-16.538-1.486-22.27zm-9.804 12.394-58.359 66.697c-.149.17-.338.26-.564.267-.221.009-.42-.07-.579-.229 0-.001 0-.001 0-.001l-41.82-41.82c-.306-.306-.306-.803 0-1.108l11.713-11.713c.153-.153.354-.229.555-.229s.401.077.554.229l16.778 16.778c3.077 3.077 7.315 4.754 11.687 4.614 4.349-.145 8.487-2.106 11.353-5.381l35.037-40.043c.142-.162.322-.252.537-.266.213-.015.406.05.568.192l12.467 10.909c.324.283.358.779.073 1.104z"/></g></g></svg>